<?xml version="1.0" encoding="UTF-8"?>
<svg id="Layer_2" data-name="Layer 2" xmlns="http://www.w3.org/2000/svg" xmlns:xlink="http://www.w3.org/1999/xlink" viewBox="0 0 1335.1 1335.1">
  <defs>
    <style>
      .cls-1 {
        fill: none;
      }

      .cls-2 {
        fill: #2b2b2b;
      }

      .cls-3 {
        fill: #6fbf9c;
      }

      .cls-4 {
        fill: #fff;
      }

      .cls-5 {
        clip-path: url(#clippath);
      }
    </style>
    <clipPath id="clippath">
      <rect class="cls-1" x="309.2" y="177.82" width="756.7" height="979.45"/>
    </clipPath>
  </defs>
  <g id="Layer_1-2" data-name="Layer 1">
    <rect class="cls-2" width="1335.1" height="1335.1" rx="260.26" ry="260.26"/>
    <g id="Layer_2-2" data-name="Layer 2">
      <g id="Lager_1" data-name="Lager 1">
        <g class="cls-5">
          <g>
            <path class="cls-3" d="M361.14,510.09c17.96,1.08,36.57.89,54.55.7,6.94,0,14.11-.13,21.21-.13h52.83c10.38.09,20.19.19,29.85-.62,31.35-2.66,54.6-30.23,51.94-61.58-1.07-12.63-6.33-24.55-14.94-33.86-9.55-10.52-22.95-16.72-37.15-17.19-56.61-1.77-108.86-1.75-159.56,0-14.01.25-27.27,6.36-36.57,16.85-9.43,11.1-14.45,25.29-14.11,39.85.13,31.15,21.47,54.17,51.95,55.98"/>
            <path class="cls-3" d="M436.9,936.36h52.83c10.38.09,20.17.19,29.85-.64,31.34-2.65,54.6-30.2,51.95-61.54-1.07-12.64-6.33-24.57-14.95-33.88-9.55-10.53-22.96-16.73-37.17-17.19-28.3-.89-55.3-1.32-81.66-1.32s-52.4.43-77.87,1.34c-14.01.23-27.28,6.35-36.57,16.85-9.42,11.08-14.44,25.24-14.11,39.78.11,31.15,21.49,54.19,51.95,56,17.96,1.06,36.57.87,54.55.7,6.94,0,14.11-.15,21.21-.15"/>
            <path class="cls-4" d="M486.38,1157.22l287.17-.57c12.73-.12,25.44-.93,38.08-2.42,24.06-2.79,60.83-7.55,102.82-28.02,61.2-29.86,108.71-81.93,132.84-145.61,12.55-33.19,18.84-68.41,18.57-103.89-.19-57.13-17.77-112.85-50.4-159.74-15.79-22.78-34.96-43.02-56.85-60.02-21.98-17.09-46.58-30.53-72.83-39.79l-16.66-5.87,9.02-15.43c25.19-43.81,38.22-93.56,37.74-144.1-.18-70.1-26.55-137.61-73.93-189.27-28.26-30.42-63.12-53.97-101.89-68.83-26.02-9.6-53.42-14.94-81.14-15.81h-191.94c-3.26.09-7.55.3-12.32.91,0,0-3.77.47-6.96,1.04-27.28,4.83-54.72,33.08-51.38,70.29,1.19,17.41,9.29,33.62,22.51,45.02,2.74,2.34,18.42,15.45,39.81,15.45s71.97-.15,165.61-.53l34.28-.23c15.11.46,30.03,3.45,44.15,8.85,19.86,7.72,37.67,19.89,52.08,35.59,51.05,55.84,51.67,141.23,1.43,197.8,0,0-34.08,37.38-95.23,46.06-6.08.87-12.13,1.25-12.13,1.25-5.02.32-9.43.36-13.02.28h-168.84c-3.26,0-7.55.3-12.32.89,0,0-3.77.47-6.96,1.06-27.28,4.83-54.72,33.08-51.38,70.29,1.19,17.41,9.3,33.62,22.51,45.02,2.74,2.34,18.42,15.45,39.81,15.45s121.37-.36,321.96-1.17c24.62-1.37,49.22,2.89,71.95,12.45,19.8,7.83,37.6,19.98,52.12,35.57,51.03,55.86,51.64,141.23,1.43,197.82-24.8,26.83-58.82,43.28-95.25,46.06l-3.19.25-340.68,1.28c-3.26,0-7.55.3-12.32.89,0,0-3.77.47-6.96,1.04-27.28,4.83-54.72,33.08-51.38,70.29,1.19,17.42,9.3,33.63,22.51,45.04,2.74,2.34,18.42,15.45,39.81,15.45h27.76"/>
          </g>
        </g>
      </g>
    </g>
  </g>
</svg>