<?xml version="1.0" encoding="UTF-8"?>
<svg id="Layer_2" data-name="Layer 2" xmlns="http://www.w3.org/2000/svg" viewBox="0 0 1324.21 1324.21">
  <defs>
    <style>
      .cls-1 {
        fill: #2b2b2b;
      }

      .cls-2 {
        fill: #74f74c;
      }

      .cls-3 {
        fill: #fdfdfd;
      }
    </style>
  </defs>
  <g id="Layer_1-2" data-name="Layer 1">
    <circle class="cls-1" cx="662.1" cy="662.1" r="662.1"/>
    <path class="cls-3" d="M910.05,667.86c1.85,0,4.41-1.15,7.14-1.16,65.73-.23,131.76-.42,197.33.89,1.14.46,4.81,3.69,5.24,4.72,1.3,3.09.89,21.47.58,25.99-2.5,37.31-13.73,85.74-26.55,121.75-52.77,148.17-198.86,272.72-354.81,295.96-11.35,1.69-24.45.89-35.3,2.33-71.58,9.48-170.4-10.8-237.11-40.81-139.92-62.94-229.54-196.6-256.29-345.77-23.45-130.76,15.61-251.85,96.1-355.97,64.56-83.53,152.99-136.57,255.88-160.27,22.12-5.1,44.06-8.35,66.05-11.42,7.11-.99,21.8-2,20.59,8.3v198.2c-1.03,11.35-8.19,9.06-16.04,10.52-22.52,4.17-45.18,9.43-66.85,18.37-76.1,31.4-130.91,105.86-143.2,186.61-19.06,125.27,63.4,246.95,188.66,273.35,118.96,25.08,238.35-38.85,279.97-154.49,9.13-25.36,12.99-50.89,18.62-77.11Z"/>
    <path class="cls-2" d="M910.05,667.86c-67.7.21-135.43-.19-203.14.04-6.75-.56-8.79-1.31-9.42-8.29-5.33-59.41,5.04-125.93-1.11-185.92.08-2.96-.78-21.63,2.82-21.63h206.97c1.42,0,4.73,6.26,3.93,8.25l-.05,207.56Z"/>
  </g>
</svg>