<?xml version="1.0" encoding="UTF-8"?>
<svg id="Layer_2" data-name="Layer 2" xmlns="http://www.w3.org/2000/svg" viewBox="0 0 1545.56 1545.56">
  <defs>
    <style>
      .cls-1 {
        fill: #84a5a0;
      }

      .cls-2 {
        fill: #fff;
      }
    </style>
  </defs>
  <g id="Layer_1-2" data-name="Layer 1">
    <circle class="cls-1" cx="772.78" cy="772.78" r="772.78"/>
    <g>
      <path class="cls-2" d="M933,55.03c47,18.25,96.95,31.48,144.82,53.85,353.37,165.13,520.42,587.63,356.44,957.38-183.3,413.32-700.14,578.79-1079.68,298.81C51.31,1141.36-41.08,746.3,141.15,415.97,269.01,184.18,526.17,28.98,796.69,42.44c26.38,1.31,116,4.71,136.31,12.59ZM756.17,1453.16c3.41-11.98,0-60.25,0-77.19,0-13.96,27.57-18.99,35.75-1.01,9.08,19.92-1.81,75.14,3.38,83.44,7.06,11.29,39.76.03,49.06-1.24,415.09-56.9,691.18-435.69,588.7-850.03-64.05-258.96-264.1-469.65-546.96-512.08-24.08-3.61-52.38-12.97-77.81-10.47-23.49,2.31-9.32,16.12-9.65,29.25-.29,11.5-10.22,45.07-24.43,43.81-24.03-2.13-20.45-53.69-21.9-72.72-13.53,2.77-31.95-1.27-44.26-.23-209.06,17.58-409.07,146.7-520.28,329.39-110.52,181.56-123.07,421.1-53.38,602.84,13.18,34.37,32.09,76.73,51.26,107.42,111.71,178.92,293.84,306.01,507.05,334.41,11.92,1.59,59.28,9.05,63.45-5.59Z"/>
      <path class="cls-2" d="M878.81,201.99c8.98,2.53,50.6,26.02,63.79,34.18,90.55,56.01,141.08,166.39,95.8,268.59-34.27,77.35-93.44,114.12-153.03,174.43-29.99,30.35-34.79,49.98-28.7,93.93.14,1.02,13.13,13.97,13.89,15.07,48.78,69.55,136.7,119.47,169.21,199.95,57.83,143.15-14.27,266.68-147.57,325.98-134.84,59.99-339.32-5.14-387.58-149.38-13.84-41.36-18.84-136.54-.56-176.69,13.48-29.6,30.1-46.97,49.53-69.27,43.24-49.64,89.97-95.44,136.57-141.63-.66-17,3.84-37.42,3.56-53.58-.39-22.25-16.22-23.37-26.5-34.49-56.51-61.07-158.43-137.96-170.94-214.38-35.39-216.17,197.56-324.78,382.5-272.71ZM905.33,260.32c-122.36-66.93-321.67-22.71-365.02,117-18.23,58.76,1.17,132.99,41.86,176.8,7.84,8.44,24.9,16.42,34.93,26.68,27.66,28.29,83.84,79.81,104.39,108.07,8.89,12.22,13.98,27.44,14.39,42.32,1.55,57.31-9.78,62.73-45.47,100.5-27.83,29.45-67.84,64.27-98.51,98.3-6.8,7.55-37.65,44.42-40.02,48.89-26.42,49.79-26.12,159.97,1.14,206.34,94.3,160.44,388.68,142.51,454.73-24.71,11.02-27.91,11.69-69.39,8.98-99.27-9.96-109.86-114.14-173.61-186.06-248,1.27-11.6-11.2-17.8-11.7-18.89-.8-1.75,1.92-5.6,1.32-8.27-5.12-22.64-6.42-72.62,6.01-92.65,29.14-46.96,92.33-90.81,130.5-131.95,95.04-102.45,69.75-234.86-51.46-301.16Z"/>
      <path class="cls-2" d="M1234.37,1211.48c-1.06,1.47-20.28,12.64-24.48,12.26-3.26-.29-20.92-16.01-20.92-17.37.02-4.28,4.43-11.23,3.74-19.54-11.57-140.37.81-283.14-5.51-423.98-4.62-12.93-28.13-25.4-36.06-34.26-7.23-8.08-37.43-76.9-42.23-94.46-25.27-92.47-4.27-225.55,70.47-286.21,41.46-33.66,58.75-24.55,60.92,28.39,6.52,158.61-6.44,320.77-9.55,478.43-2.24,113.73,7.37,226.96-.24,339.87-.39,5.85,4.35,16.18,3.84,16.88ZM1200,714.01v-328.07c-9.52,8.96-22.44,21.32-29.5,31.94-4.44,6.68-12.8,23.96-17.09,35.65-19.13,52.16-21.86,186.9,15.52,231.6,4.76,5.69,11.76,7.35,14.49,10.41.9,1.01,1.26,17.7,16.58,18.47Z"/>
      <path class="cls-2" d="M423.16,620.62c-1.35,1.79-29.99,26.71-33.82,29.56-6.36,4.74-16.28,5.18-21.33,9.55-13.16,11.4-1.86,50.74-1.49,67.61,3.41,156.03,2.69,316.4.24,471.19-.11,7.11-5.95,5.16-8.2,8.42-6.11,8.87.17,17.39-21.01,12.6-12.35-2.79-16.31-13.49-17.63-24.9-6.73-58.47-3.86-157.9-4.12-220.08-.39-92.25,12.49-201.46,4.15-293.28-3.45-37.93-9.42-18.73-25.82-30.2-2.11-1.48-33.2-36.12-34.54-38.32-.6-.99-7.5-19.88-7.76-21.01-6.21-26.7-5.48-158.6-2.61-189.78,2.37-25.62,17.47-45.44,37.88-19.81l3.15,197.61c8.87,50.38,85.54,57.81,101.32,10.8.43-1.27,5.27-24.02,5.41-25.35,6.06-58.47-4.75-124.93,1.03-184.28,10.04-22.52,35.25-14.85,37.98,6.72-6.93,58.45,7.82,133.25,1.72,189.32-.25,2.31-13.16,41.76-14.56,43.62Z"/>
      <path class="cls-2" d="M320.96,359.61c2.26-10,37.25-12.65,41.44,9.03l-.02,181.23c-6.83,25.81-40.65,22.27-42.22-3.95-.41-6.91,3.88-14.77,3.91-22.82.15-49.02-.58-98.02.05-147.05.08-5.92-3.76-13.74-3.15-16.45Z"/>
      <path class="cls-2" d="M250.51,779.55c-11.9,2.67-10.02,12.82-25.31,15.27-12.97,2.08-89.23,1.89-96.52-3.34-16.7-11.97-5.76-25.74,2.85-38.05,39.82,3.46,97.59-21.16,118.98,26.11Z"/>
      <path class="cls-2" d="M1322.44,753.42c13.85-3.12,68.44-2.5,83.19.11,29.74,5.26,29.53,34.73,4.56,41.29-12.43,3.27-75.59,2.14-87.73-.58-25.78-5.78-28.04-34.5-.02-40.82Z"/>
      <path class="cls-2" d="M600.98,410.4c.79.16,11.11,2.97,11.76,3.46,39.2,29.54,165.91,40.15,230.4,30.28,33.69-5.16,63.95-21.91,96.55-28.95,12.15-2.63,27.6-2.79,40.33-6.07,1.79,1.89-.34,45.29-2.07,52.02-9.39,36.49-52.34,89.69-80.81,117.87-5.49,5.44-15.32,6.95-21.52,13.21-29.43,29.71-56.98,61.31-87.87,89.68-7.07,28,4.99,59.72,5.61,84.84.65,26.35-3.14,56.62-2.61,84.46.29,15.27,6.18,28.81,4.09,46.26-2.35,19.57-18.01,38.61-36.5,21.27-2.76-2.59,1.45-4.73.45-7.05-.46-1.07-6.08-.59-6.05-2.46.06-3.07,3.7-8.94,3.67-15.5-.28-63.89,9.5-137.48,3.89-197.73-.55-5.92,2.95-12.87,1.5-16.91-30.82-29.53-60.14-60.6-90.5-90.54-35.32-34.84-94.05-74.54-102-127.27-1.22-8.06-3.55-40.24-1.68-45.81,2.83-8.46,25.78-6.54,33.36-5.05Z"/>
      <path class="cls-2" d="M793.77,984.9c.42.45-1.39,6.7,2.03,11.33,32.22,43.54,92.9,99.24,136.97,114.96,8.19,2.92,41.23,7.42,42.73,9.01,18.55,19.72-25.98,76.05-39.81,91.76-62.46,71.01-184.1,81.45-267.94,40.13-26.06-12.85-67.02-48.26-81.08-74.15-7.25-13.36-13.96-33.88-19.13-48.61,1.67-7.23,53.33-23.08,64.17-28.22,48.06-22.82,71.74-53.89,106.56-92.37,4.75-5.25,26.5-29.08,29.62-30.47,6.22-2.77,22.01,2.49,25.88,6.64Z"/>
    </g>
  </g>
</svg>