<?xml version="1.0" encoding="UTF-8"?>
<svg id="Layer_2" data-name="Layer 2" xmlns="http://www.w3.org/2000/svg" viewBox="0 0 1335.1 1335.1">
  <defs>
    <style>
      .cls-1 {
        fill: #2b2b2b;
      }

      .cls-2 {
        fill: #9ce5be;
      }

      .cls-3 {
        fill: #fefefe;
      }
    </style>
  </defs>
  <g id="Layer_1-2" data-name="Layer 1">
    <rect class="cls-1" width="1335.1" height="1335.1" rx="260.26" ry="260.26"/>
    <path class="cls-3" d="M538.75,270.4c73.43-4.46,150.56,2.79,224.37-.32,89.08,5.66,86.63,132.63,2.84,137.86-70.66,4.41-145.63-5.18-216.15-.98-61.94,3.69-116.5,46.08-134.02,105.68-26.81,91.2,30.88,183.95,125.48,195.37l226.57-.07c84.74,10.68,81.8,132.09-5.66,137.85-72.76-2.99-148.5,3.84-220.91,0-129.92-6.89-239.35-113.67-258.75-240.46-24.83-162.28,88.18-324.73,256.24-334.94Z"/>
    <path class="cls-3" d="M525.11,509.2c13.24-13.13,29.82-18.94,48.28-20.14,72.11,2.88,147.22-3.86,218.97-.05,91.16,4.84,177.34,60.59,222.97,138.47,107.49,183.46-8.93,421.14-222.02,437.25-72.92-3.65-150.37,4.73-222.76-.05-85.7-5.66-87.3-129.2-2.83-137.75,71.75-3.48,146.68,5.15,218.03.97,56.31-3.29,107.52-40.14,128.54-92.29,37.4-92.78-21.17-197.49-120.99-208.81l-229.35.03c-56.01-7.51-79.07-77.73-38.84-117.62Z"/>
    <path class="cls-2" d="M377.35,927.17c78.59-8.86,109.38,92.94,44.26,129.18-57.76,32.15-123.78-26.93-98.01-87.62,9.03-21.26,30.44-38.93,53.75-41.56Z"/>
  </g>
</svg>